<svg xmlns="http://www.w3.org/2000/svg" xmlns:xlink="http://www.w3.org/1999/xlink" width="360" height="360" viewBox="0 0 360 360" fill="none"><defs><rect id="path_0" x="0" y="0" width="360" height="360" /><filter id="filter_2" x="27" y="-7" width="341.0000054396395" height="341" filterUnits="userSpaceOnUse" color-interpolation-filters="sRGB"><feFlood flood-opacity="0" result="BackgroundImageFix"/>
          <feColorMatrix in="SourceAlpha" type="matrix" values="0 0 0 0 0 0 0 0 0 0 0 0 0 0 0 0 0 0 127 0"/>
          <feOffset dx="0" dy="0"/>
          <feGaussianBlur stdDeviation="3.5"/>
          <feColorMatrix type="matrix" values="0 0 0 0 0 0 0 0 0 0 0 0 0 0 0 0 0 0 0.25 0"/>
          <feBlend mode="normal" in2="BackgroundImageFix" result="effect1_Shadow"/>
          <feBlend mode="normal" in="SourceGraphic" in2="effect1_Shadow" result="shape"/></filter><filter id="filter_4" x="109" y="59.87095114376507" width="201.4885409956771" height="190.12904885623504" filterUnits="userSpaceOnUse" color-interpolation-filters="sRGB"><feFlood flood-opacity="0" result="BackgroundImageFix"/>
          <feColorMatrix in="SourceAlpha" type="matrix" values="0 0 0 0 0 0 0 0 0 0 0 0 0 0 0 0 0 0 127 0"/>
          <feOffset dx="0" dy="0"/>
          <feGaussianBlur stdDeviation="3.5"/>
          <feColorMatrix type="matrix" values="0 0 0 0 0 0 0 0 0 0 0 0 0 0 0 0 0 0 0.25 0"/>
          <feBlend mode="normal" in2="BackgroundImageFix" result="effect1_Shadow"/>
          <feBlend mode="normal" in="SourceGraphic" in2="effect1_Shadow" result="shape"/></filter><filter id="filter_6" x="145.83551439710163" y="135.65727501999618" width="68.62716289931433" height="88.45813038540939" filterUnits="userSpaceOnUse" color-interpolation-filters="sRGB"><feFlood flood-opacity="0" result="BackgroundImageFix"/>
          <feColorMatrix in="SourceAlpha" type="matrix" values="0 0 0 0 0 0 0 0 0 0 0 0 0 0 0 0 0 0 127 0"/>
          <feOffset dx="0" dy="0"/>
          <feGaussianBlur stdDeviation="3.5"/>
          <feColorMatrix type="matrix" values="0 0 0 0 0 0 0 0 0 0 0 0 0 0 0 0 0 0 0.25 0"/>
          <feBlend mode="normal" in2="BackgroundImageFix" result="effect1_Shadow"/>
          <feBlend mode="normal" in="SourceGraphic" in2="effect1_Shadow" result="shape"/></filter></defs><g opacity="1" transform="translate(0 0)  rotate(0 180 180)"><mask id="bg-mask-0" fill="white"><use xlink:href="#path_0"></use></mask><g mask="url(#bg-mask-0)" ><g id="减去顶层" filter="url(#filter_2)"><path id="减去顶层" fill-rule="evenodd" style="fill:#000000" transform="translate(34 0)  rotate(0 163.50000271981975 163.5)" opacity="1" d="M215.88 13.7C237.73 22.74 257.57 36.01 274.28 52.73C291 69.43 304.26 89.27 313.31 111.13C322.35 132.95 327 156.37 327 180C327 203.63 322.35 227.05 313.31 248.88C304.75 269.54 292.41 288.44 276.94 304.58C276.24 305.28 274.28 305.71 274.28 305.71C273.27 305.71 271.59 304.61 271.59 304.61L250.941 283.959C277.546 257.359 294 220.605 294 180C294 144.66 281.536 112.237 260.764 86.8859C263.646 82.436 266.324 78.342 268.68 74.7609C269.88 72.9109 269.73 70.4809 268.29 68.8309C266.91 67.2309 264.72 66.701 262.79 67.4409C263.566 67.0722 263.977 66.8754 263.976 66.8738C263.975 66.8721 263.555 67.0693 262.666 67.4891C262.593 67.519 262.52 67.553 262.45 67.591C262.525 67.5556 262.597 67.5217 262.666 67.4891C262.708 67.4717 262.75 67.4556 262.79 67.4409C260.629 68.4682 255.624 70.8259 248.829 73.9708C222.413 48.5954 186.531 33 147 33C106.4 33 69.6492 49.4504 43.0491 76.0509L22.5498 55.55C22.5498 55.55 21.3898 53.8 21.3898 52.73C21.3898 52.73 21.8198 50.66 22.5798 49.92C38.6898 34.51 57.5098 22.23 78.1098 13.7C99.9598 4.65 123.37 0 147 0C170.65 0 194.03 4.65 215.88 13.7Z M61.3586 94.3619L43.0491 76.0509C16.4496 102.651 0 139.4 0 180C0 261.2 65.8 327 147 327C187.595 327 224.341 310.554 250.941 283.959L229.631 262.648C250.879 241.152 264 211.605 264 179C264 154.634 256.673 131.976 244.102 113.109C238.401 122.282 232.706 131.691 227.648 140.485C233.008 152.044 236 164.924 236 178.5C236 203.489 225.864 226.117 209.481 242.496L191.248 224.262C179.669 235.84 163.675 243.001 146.01 243.001C110.65 243.001 82 214.341 82 178.991C82 161.318 89.1611 145.324 100.742 133.748L81.5088 114.514C97.8877 98.1335 120.514 88 145.5 88C161.822 88 177.137 92.3242 190.361 99.8892C200.229 95.7726 210.608 91.2489 220.359 86.9057C199.837 70.0912 173.594 60 145 60C112.398 60 82.8541 73.1178 61.3586 94.3619Z M81.5088 114.514C65.1315 130.892 55 153.516 55 178.5C55 228.47 95.53 269 145.5 269C170.481 269 193.103 258.871 209.481 242.496L229.631 262.648C208.058 284.474 178.105 298 145 298C79.29 298 26 244.71 26 179C26 145.892 39.5288 115.936 61.3586 94.3619L81.5088 114.514Z " /></g><g id="路径" filter="url(#filter_4)"><path id="路径" fill-rule="evenodd" style="fill:#000000" transform="translate(116 66.87095114376507)  rotate(0 93.74427049783856 88.06452442811752)" opacity="0.25" d="M180.79 0.57C181.566 0.201224 181.977 0.00447821 181.976 0.00283243C181.975 0.0011709 181.555 0.198362 180.666 0.618143C180.593 0.648094 180.52 0.682046 180.45 0.72L180.666 0.618143C180.708 0.600745 180.75 0.584697 180.79 0.57ZM180.79 0.57C169.43 5.97 79.47 48.14 64.01 48.14C28.65 48.14 0 76.77 0 112.12C0 147.47 28.65 176.13 64.01 176.13C99.35 176.13 128 147.47 128 112.12C128 98.67 167.73 36.69 186.68 7.89C187.88 6.04 187.73 3.61 186.29 1.96C184.91 0.36 182.72 -0.17 180.79 0.57Z" /></g><g id="路径" filter="url(#filter_6)"><path id="路径" fill-rule="evenodd" style="fill:#000000" transform="translate(152.83551439710163 142.65727501999618)  rotate(0 27.313581449657164 37.2290651927047)" opacity="1" d="M34.29,25.89L41.4,3.91C41.78,2.68 41.35,1.34 40.31,0.58C39.28,-0.18 37.86,-0.19 36.81,0.54L1.26,25.67C0.51,26.2 0.05,27.04 0.01,27.96C-0.04,28.88 0.32,29.76 1.02,30.37L17.7,45.06C18.6,45.84 18.93,47.06 18.6,48.19L11.7,70.57C11.31,71.79 11.76,73.11 12.78,73.87C13.8,74.63 15.2,74.65 16.26,73.93L53.33,48.62C54.1,48.09 54.59,47.21 54.63,46.26C54.67,45.32 54.26,44.41 53.51,43.81L35.27,29.17C34.29,28.38 33.91,27.08 34.29,25.89Z " /><path  id="路径" style="stroke:#000000; stroke-width:2; stroke-opacity:1; stroke-dasharray:0 0" transform="translate(152.83551439710163 142.65727501999618)  rotate(0 27.313581449657164 37.2290651927047)" d="M34.29,25.89L41.4,3.91C41.78,2.68 41.35,1.34 40.31,0.58C39.28,-0.18 37.86,-0.19 36.81,0.54L1.26,25.67C0.51,26.2 0.05,27.04 0.01,27.96C-0.04,28.88 0.32,29.76 1.02,30.37L17.7,45.06C18.6,45.84 18.93,47.06 18.6,48.19L11.7,70.57C11.31,71.79 11.76,73.11 12.78,73.87C13.8,74.63 15.2,74.65 16.26,73.93L53.33,48.62C54.1,48.09 54.59,47.21 54.63,46.26C54.67,45.32 54.26,44.41 53.51,43.81L35.27,29.17C34.29,28.38 33.91,27.08 34.29,25.89Z " /></g></g></g></svg>