<?xml version="1.0" encoding="UTF-8"?>
<svg id="_图层_1" data-name="图层 1" xmlns="http://www.w3.org/2000/svg" viewBox="0 0 24 24">
  <g id="_Public_ic_public_connection" data-name="_Public/ic_public_connection">
    <g id="_蒙版" data-name=" 蒙版">
      <path id="_path-1" data-name=" path-1" d="M13.61,16.44c.28,.28,.29,.73,.03,1.03l-.03,.03-2.65,2.65c-1.95,1.95-5.12,1.95-7.07,0s-1.95-5.05-.06-7.01l2.71-2.71c.29-.29,.77-.29,1.06,0s.29,.73,.03,1.03l-.03,.03-2.65,2.65c-1.37,1.37-1.37,3.58,0,4.95s3.52,1.37,4.89,.05l2.71-2.71c.29-.29,.77-.29,1.06,0Zm2.12-8.13c.29,.29,.29,.77,0,1.06l-6.01,6.01c-.29,.29-.77,.29-1.06,0s-.29-.77,0-1.06l6.01-6.01c.29-.29,.77-.29,1.06,0Zm4.77-4.77c1.93,1.93,1.95,5.05,.06,7.01l-2.71,2.71c-.29,.29-.77,.29-1.06,0s-.29-.73-.03-1.03l.03-.03,2.65-2.65c1.37-1.37,1.37-3.58,0-4.95s-3.52-1.37-4.89-.05l-.06,.05-2.65,2.65c-.29,.29-.77,.29-1.06,0s-.29-.73-.03-1.03l.03-.03,2.65-2.65c1.95-1.95,5.12-1.95,7.07,0Z"/>
    </g>
  </g>
</svg>