<?xml version="1.0" encoding="UTF-8"?>
<svg id="_图层_1" data-name="图层 1" xmlns="http://www.w3.org/2000/svg" viewBox="0 0 24 24">
  <g id="_画板" data-name=" 画板">
    <g id="_路径" data-name=" 路径">
      <path id="_path-1" data-name=" path-1" d="M18.62,10.25l-4.98,4.98c-.67,.67-1.75,.68-2.43,.04l-4.99-4.99c-.13-.13-.2-.29-.22-.46v-.09c0-.18,.08-.37,.22-.51,.28-.28,.73-.29,1.03-.03l4.63,4.63c.28,.28,.73,.29,1.03,.03l4.63-4.63c.29-.29,.77-.29,1.06,0,.14,.14,.21,.32,.22,.51v.05c0,.17-.07,.34-.19,.47Z"/>
    </g>
  </g>
</svg>