<?xml version="1.0" standalone="no"?>
<!DOCTYPE svg PUBLIC "-//W3C//DTD SVG 20010904//EN"
 "http://www.w3.org/TR/2001/REC-SVG-20010904/DTD/svg10.dtd">
<svg version="1.0" xmlns="http://www.w3.org/2000/svg"
 width="700.000000pt" height="700.000000pt" viewBox="0 0 700.000000 700.000000"
 preserveAspectRatio="xMidYMid meet">
<metadata>
Created by potrace 1.14, written by Peter Selinger 2001-2017
</metadata>
<g transform="translate(0.000000,700.000000) scale(0.100000,-0.100000)"
fill="#000000" stroke="none">
<path d="M3278 6996 c-1 -2 -42 -6 -89 -10 -47 -4 -95 -8 -105 -10 -10 -2 -48
-7 -84 -12 -36 -4 -67 -8 -70 -9 -3 -1 -25 -5 -50 -9 -25 -4 -101 -21 -170
-38 -69 -16 -134 -31 -146 -34 -39 -7 -228 -72 -346 -117 -141 -55 -364 -163
-471 -229 -43 -26 -81 -48 -83 -48 -5 0 -205 -134 -234 -157 -265 -207 -372
-306 -548 -501 -219 -243 -444 -589 -567 -872 -25 -58 -50 -114 -55 -125 -45
-93 -150 -427 -176 -560 -2 -11 -10 -54 -19 -95 -29 -147 -35 -193 -52 -370
-15 -163 -8 -592 12 -711 2 -13 6 -46 9 -74 38 -329 167 -745 339 -1085 61
-122 169 -312 187 -330 3 -3 31 -43 62 -90 170 -255 431 -534 708 -755 92 -74
370 -265 386 -265 4 0 15 -6 23 -14 9 -7 81 -47 161 -88 354 -181 736 -303
1109 -354 25 -3 57 -8 71 -10 163 -25 682 -25 842 1 13 2 46 7 73 10 74 11 87
13 120 19 17 4 46 9 65 12 51 8 213 48 300 74 253 74 522 187 734 309 49 28
91 51 93 51 10 0 268 180 353 247 151 118 324 281 450 422 36 41 70 79 76 85
29 30 185 242 240 326 120 184 241 412 315 597 66 163 147 422 175 558 16 79
54 301 59 350 4 33 9 71 11 85 9 47 11 525 3 605 -15 165 -21 220 -24 225 -2
3 -6 30 -10 60 -3 30 -10 71 -15 90 -5 19 -12 51 -15 70 -13 77 -66 272 -106
390 -325 967 -1053 1743 -1999 2132 -225 93 -555 185 -760 213 -19 3 -46 7
-60 10 -13 2 -54 7 -90 11 -36 3 -76 8 -90 11 -27 5 -536 14 -542 9z m477
-690 c28 -3 73 -9 100 -12 74 -8 146 -20 210 -34 22 -5 54 -11 70 -14 147 -27
428 -129 625 -227 662 -331 1178 -925 1411 -1623 120 -362 166 -739 136 -1136
-7 -91 -10 -112 -23 -190 -9 -52 -12 -72 -17 -105 -22 -138 -109 -420 -179
-579 -36 -82 -123 -255 -151 -301 -160 -261 -268 -399 -462 -590 -418 -415
-934 -677 -1523 -775 -258 -43 -646 -46 -877 -6 -35 7 -89 16 -115 20 -211 36
-513 141 -739 257 -133 68 -120 61 -270 158 -455 295 -841 759 -1051 1265 -51
122 -119 327 -135 406 -2 8 -10 47 -18 85 -17 74 -24 118 -42 230 -25 163 -25
515 -1 720 6 47 26 166 36 210 5 22 11 54 14 71 3 18 22 87 42 155 157 542
491 1042 933 1398 348 281 787 491 1186 567 11 2 31 6 45 9 41 9 62 12 120 20
30 4 64 9 75 11 11 2 63 7 115 10 52 4 96 8 98 9 5 5 337 -3 387 -9z"/>
</g>
</svg>
