<svg xmlns="http://www.w3.org/2000/svg" xmlns:xlink="http://www.w3.org/1999/xlink" width="24" height="24"><defs><path id="a" d="M21 15.25a1 1 0 0 1 .999.95l.001.05V18a4 4 0 0 1-3.921 4H6a4 4 0 0 1-4-3.921V16.25a1 1 0 0 1 1.999-.05l.001.05V18a2 2 0 0 0 1.938 1.999L6 20h12a2 2 0 0 0 1.999-1.938L20 18v-1.75a1 1 0 0 1 1-1M11.998 2a1 1 0 0 1 1 1v11.837l3.545-3.544a1 1 0 0 1 1.449 1.378l-.035.036-4.543 4.543a2 2 0 0 1-2.783.043l-.045-.043-4.543-4.543a1 1 0 0 1 1.378-1.449l.036.035 3.541 3.54V3a1 1 0 0 1 1-1"/></defs><use xlink:href="#a"/></svg>