<?xml version="1.0" encoding="UTF-8"?>
<svg id="a" data-name="图层 1" xmlns="http://www.w3.org/2000/svg" xmlns:xlink="http://www.w3.org/1999/xlink" viewBox="0 0 960 480">
  <defs>
    <style>
      .h {
        fill: #fff;
      }

      .i {
        fill: url(#c);
      }
    </style>
    <linearGradient id="c" data-name="未命名的渐变 29" x1="0" y1="240.5" x2="960" y2="240.5" gradientUnits="userSpaceOnUse">
      <stop offset="0" stop-color="#00a6f9"/>
      <stop offset="1" stop-color="#81bd0a"/>
    </linearGradient>
  </defs>
  <g id="b" data-name="背景">
    <rect class="i" y=".5" width="960" height="480"/>
  </g>
  <g id="d" data-name="内容">
    <g id="e" data-name="顶部">
      <g id="f" data-name="图标">
        <path class="h" d="M188.69,99.27c44.11,0,80,35.89,80,80s-35.89,80-80,80-80-35.89-80-80,35.89-80,80-80m0-18c-54.12,0-98,43.88-98,98s43.88,98,98,98,98-43.88,98-98-43.88-98-98-98h0Z"/>
      </g>
      <g>
        <path class="h" d="M322.94,159.22h31.48v8.38h-21.91v12.34h19.6v8.32h-19.6v19.27h-9.57v-48.31Z"/>
        <path class="h" d="M360.36,191.42v-7.66h24.75v7.66h-24.75Z"/>
        <path class="h" d="M394.75,170.04c2.02-3.78,4.79-6.68,8.28-8.68s7.4-3,11.71-3,8.22,1,11.72,3c3.5,2,6.27,4.89,8.32,8.68s3.07,8.21,3.07,13.27-1.02,9.55-3.07,13.33-4.82,6.68-8.32,8.68c-3.5,2-7.4,3-11.72,3s-8.22-1-11.71-3c-3.5-2-6.26-4.89-8.28-8.68-2.02-3.78-3.04-8.23-3.04-13.33s1.01-9.48,3.04-13.27Zm8.68,21.78c1.08,2.46,2.6,4.37,4.55,5.71,1.96,1.34,4.21,2.01,6.76,2.01s4.81-.67,6.77-2.01c1.96-1.34,3.47-3.24,4.55-5.71,1.08-2.46,1.62-5.3,1.62-8.51s-.54-6.04-1.62-8.48c-1.08-2.44-2.6-4.33-4.55-5.68-1.96-1.34-4.21-2.01-6.77-2.01s-4.81,.67-6.76,2.01c-1.96,1.34-3.48,3.23-4.55,5.68-1.08,2.44-1.62,5.27-1.62,8.48s.54,6.05,1.62,8.51Z"/>
        <path class="h" d="M455.27,178.22h21.78v-19.01h9.64v48.31h-9.64v-20.79h-21.78v20.79h-9.57v-48.31h9.57v19.01Z"/>
        <path class="h" d="M531.3,159.22c3.83,0,7.17,.66,10.03,1.98,2.86,1.32,5.07,3.18,6.63,5.58,1.56,2.4,2.34,5.2,2.34,8.41s-.78,5.95-2.34,8.35c-1.56,2.4-3.77,4.25-6.63,5.54-2.86,1.3-6.2,1.95-10.03,1.95h-7.06v16.5h-9.57v-48.31h16.63Zm-1.06,23.69c2.99,0,5.39-.65,7.19-1.95,1.8-1.3,2.71-3.22,2.71-5.78s-.9-4.5-2.71-5.84c-1.8-1.34-4.2-2.01-7.19-2.01h-6.01v15.58h6.01Z"/>
        <path class="h" d="M588.32,159.22l10.03,32.47,9.24-32.47h9.24l-15.05,48.31h-7.39l-10.16-31.55-9.83,31.55h-7.33l-15.71-48.31h9.9l9.9,32.47,9.5-32.47h7.66Z"/>
        <path class="h" d="M639.61,159.22l19.54,48.31h-10.16l-4.22-11.02h-18.81l-4.09,11.02h-9.57l18.94-48.31h8.38Zm2.05,29.11l-6.47-16.96-6.27,16.96h12.74Z"/>
        <path class="h" d="M677.6,178.13c1.5-3.82,3.57-7.06,6.19-9.72h6.48c-2.62,3.17-4.62,6.51-6,10.03-1.38,3.52-2.06,7.58-2.06,12.19s.69,8.72,2.06,12.24,3.38,6.85,6,9.98h-6.48c-2.62-2.66-4.69-5.89-6.19-9.7-1.5-3.81-2.26-7.98-2.26-12.53s.75-8.68,2.26-12.5Z"/>
        <path class="h" d="M728.1,207.53h-8.3l-3.65-3.84c-3.26,2.95-7.14,4.42-11.62,4.42-3.62,0-6.54-.9-8.76-2.71-2.22-1.81-3.34-4.33-3.34-7.56,0-2.66,.7-4.82,2.11-6.48,1.41-1.66,3.34-3.12,5.81-4.37-1.25-1.44-2.12-2.73-2.62-3.87-.5-1.13-.74-2.33-.74-3.58,0-1.92,.48-3.57,1.44-4.94,.96-1.38,2.25-2.42,3.86-3.14s3.4-1.08,5.35-1.08,3.78,.37,5.28,1.1c1.5,.74,2.66,1.75,3.46,3.05,.8,1.3,1.2,2.76,1.2,4.39,0,2.18-.68,3.96-2.04,5.35-1.36,1.39-3.29,2.71-5.78,3.96l6,6.38c1.09-2.33,1.82-4.97,2.21-7.92h6.67c-.74,4.77-2.24,8.93-4.51,12.48l7.97,8.35Zm-16.03-8.11l-7.97-8.45c-1.5,.86-2.67,1.79-3.5,2.78-.83,.99-1.25,2.16-1.25,3.5,0,1.57,.54,2.78,1.61,3.65,1.07,.86,2.49,1.29,4.25,1.29,2.46,0,4.75-.93,6.86-2.78Zm-7.82-17.74c.35,.72,.98,1.61,1.87,2.66,1.54-.74,2.7-1.5,3.5-2.28,.8-.78,1.2-1.72,1.2-2.81,0-.93-.31-1.69-.94-2.28s-1.45-.89-2.47-.89c-1.09,0-1.98,.3-2.66,.91-.69,.61-1.03,1.47-1.03,2.59,0,.67,.18,1.37,.53,2.09Z"/>
        <path class="h" d="M738.66,172.39h28.32v6.19h-10.66v28.94h-7.01v-28.94h-10.66v-6.19Z"/>
        <path class="h" d="M782.87,184.9c1.89,1.9,2.83,4.62,2.83,8.13v14.5h-5.62c-.03-.26-.07-.68-.12-1.27-.05-.59-.12-1.11-.22-1.56-.74,1.15-1.69,2.01-2.86,2.57-1.17,.56-2.58,.84-4.25,.84s-3.3-.3-4.73-.91-2.55-1.5-3.38-2.66c-.83-1.17-1.25-2.55-1.25-4.15s.47-3.11,1.42-4.34c.94-1.23,2.22-2.18,3.82-2.86,1.6-.67,3.36-1.01,5.28-1.01,1.73,0,3.5,.29,5.33,.86-.1-3.68-1.66-5.52-4.7-5.52-2.43,0-4.21,1.09-5.33,3.26l-4.75-2.74c.9-1.86,2.27-3.32,4.13-4.39,1.86-1.07,4.03-1.61,6.53-1.61,3.36,0,5.98,.95,7.87,2.86Zm-3.74,12.55c-1.6-.38-2.99-.58-4.18-.58-1.57,0-2.78,.28-3.65,.84-.86,.56-1.3,1.35-1.3,2.38,0,.93,.34,1.65,1.03,2.16,.69,.51,1.58,.77,2.66,.77,1.44,0,2.7-.41,3.79-1.22s1.63-1.94,1.63-3.38v-.96Z"/>
        <path class="h" d="M807.63,182.66h6.67v24.86h-5.9c-.13-1.92-.26-3.21-.38-3.89-.83,1.5-1.92,2.62-3.26,3.36-1.34,.74-2.88,1.1-4.61,1.1-2.78,0-4.98-.89-6.58-2.69-1.6-1.79-2.4-4.42-2.4-7.87v-14.88h6.67v12.67c0,4.58,1.47,6.86,4.42,6.86,1.6,0,2.9-.62,3.89-1.87,.99-1.25,1.49-2.99,1.49-5.23v-12.43Z"/>
        <path class="h" d="M836.43,182.47c.83,.29,1.47,.66,1.92,1.1l-2.59,5.14c-.83-.58-1.78-.86-2.83-.86-1.73,0-3.11,.72-4.15,2.16s-1.56,3.42-1.56,5.95v11.57h-6.67v-24.86h5.86c.16,1.92,.3,3.23,.43,3.94,.74-1.5,1.7-2.64,2.88-3.41,1.18-.77,2.53-1.15,4.03-1.15,.96,0,1.86,.14,2.69,.43Z"/>
        <path class="h" d="M841.69,178.27c-.78-.82-1.18-1.77-1.18-2.86s.38-2.08,1.15-2.88c.77-.8,1.7-1.2,2.78-1.2s2.03,.41,2.83,1.22c.8,.82,1.2,1.77,1.2,2.86s-.4,2.04-1.2,2.86c-.8,.82-1.74,1.22-2.83,1.22s-1.98-.41-2.76-1.22Zm6.17,29.26h-6.67v-24.86h6.67v24.86Z"/>
        <path class="h" d="M864.27,203.16c-1.5,3.81-3.57,7.04-6.19,9.7h-6.48c2.62-3.14,4.62-6.46,6-9.98s2.06-7.6,2.06-12.24-.69-8.67-2.06-12.19c-1.38-3.52-3.38-6.86-6-10.03h6.48c2.62,2.66,4.69,5.9,6.19,9.72,1.5,3.82,2.26,7.99,2.26,12.5s-.75,8.72-2.26,12.53Z"/>
      </g>
    </g>
    <g id="g" data-name="介绍">
      <path class="h" d="M131.93,381.02l5.18-.91,.29,3.6c-2.4,.35-8.21,1.28-17.42,2.78l-.38-3.5,2.06-.34v-16.8h3.41v16.27c.9-.13,2.05-.3,3.46-.53v-18.82h-5.9v-14.69h13.25v14.69h-3.94v6.91h4.56v3.6h-4.56v7.73Zm.62-29.23h-6.53v7.34h6.53v-7.34Zm2.69,11.9c2.14-1.41,3.98-2.9,5.5-4.46,1.52-1.57,2.79-3.31,3.82-5.23h-7.15v-3.6h8.74c.54-1.38,1.06-3.14,1.54-5.28l3.5,.62c-.29,1.5-.7,3.06-1.25,4.66h12.91v3.6h-7.78c1.02,2.11,2.26,3.95,3.72,5.52,1.46,1.57,3.19,2.91,5.21,4.03l-1.68,3.17c-2.4-1.41-4.5-3.15-6.29-5.23v2.4h-13.06v-1.92c-1.5,1.54-3.46,3.17-5.86,4.9l-1.87-3.17Zm2.4,7.44v-3.36h24.86v3.36h-17.04l-.86,3.94h15.41c-.32,2.98-.78,5.71-1.39,8.21-.35,1.44-.74,2.55-1.18,3.34-.43,.78-1.04,1.38-1.82,1.78-.79,.4-1.87,.6-3.24,.6-1.98,0-4.21-.16-6.67-.48l-.77-3.5c2.5,.42,4.8,.62,6.91,.62,.86,0,1.51-.24,1.94-.72,.43-.48,.84-1.26,1.22-2.35,.48-1.28,.8-2.66,.96-4.13h-15.65l1.39-7.3h-4.08Zm10.85-17.14c-1.12,2.37-2.48,4.5-4.08,6.38h10.7c-1.54-2.05-2.75-4.18-3.65-6.38h-2.98Z"/>
      <path class="h" d="M191.74,369.88h19.49v3.65h-19.49v15.46h-3.98v-15.46h-19.54v-3.65h19.54v-18.43h-17.57v-3.65h39.12v3.65h-17.57v18.43Zm-16.56-15.7c1.09,1.34,2.48,3.17,4.18,5.47,1.7,2.3,3.06,4.22,4.08,5.76l-3.17,2.16c-1.02-1.63-2.37-3.6-4.03-5.9s-3.01-4.08-4.03-5.33l2.98-2.16Zm20.83,11.23c1.15-1.28,2.57-3.1,4.25-5.47,1.68-2.37,2.98-4.3,3.91-5.81l3.12,2.16c-.9,1.44-2.21,3.36-3.94,5.76s-3.15,4.26-4.27,5.57l-3.07-2.21Z"/>
      <path class="h" d="M246.12,350.06c1.63,1.63,3.76,3.93,6.38,6.89,2.62,2.96,4.74,5.45,6.34,7.46l-2.98,2.59c-.32-.42-1.23-1.55-2.74-3.41l-.77-.91c-5.12,.38-10.25,.77-15.38,1.15-5.14,.38-10.26,.78-15.38,1.2l-3.31,.24-1.06-3.98c1.18-.19,2.05-.38,2.59-.55,.54-.17,1.02-.42,1.44-.74,1.82-1.41,4.08-3.7,6.77-6.86,2.69-3.17,4.85-5.98,6.48-8.45l3.5,2.02c-1.76,2.5-3.79,5.14-6.1,7.94-2.3,2.8-4.29,4.94-5.95,6.41,2.82-.26,6.74-.56,11.76-.91l11.71-.86c-2.62-3.01-4.67-5.25-6.14-6.72l2.83-2.5Zm-20.54,39.22h-3.89v-20.06h32.02v20.06h-3.89v-2.59h-24.24v2.59Zm24.24-6.24v-10.03h-24.24v10.03h24.24Z"/>
      <path class="h" d="M277.32,345.88c-.45,2.11-1.06,4.51-1.82,7.2h6.77v34.22h-16.18v-34.22h5.18c.77-2.27,1.44-4.91,2.02-7.92l4.03,.72Zm-7.49,20.5h8.64v-9.55h-8.64v9.55Zm0,3.7v13.44h8.64v-13.44h-8.64Zm36.14-17.42v2.02c0,4.03-.1,8.75-.31,14.16-.21,5.41-.46,9.86-.74,13.34-.13,1.57-.42,2.78-.86,3.62-.45,.85-1.1,1.45-1.94,1.8-.85,.35-1.99,.56-3.43,.62-.35,.03-.86,.05-1.54,.05-.54,0-1.16-.02-1.85-.05-.69-.03-1.22-.06-1.61-.1l-1.3-.1-.67-3.98c2.3,.29,4.1,.43,5.38,.43,.99,0,1.75-.1,2.28-.31,.53-.21,.94-.61,1.25-1.2,.3-.59,.52-1.51,.65-2.76,.48-5.44,.72-12.16,.72-20.16v-3.7h-11.9c-1.09,2.72-2.13,5.1-3.12,7.15l-3.36-2.21c1.25-2.4,2.42-5.08,3.5-8.04s1.95-5.77,2.59-8.42l3.84,.77c-.67,2.59-1.38,4.94-2.11,7.06h14.54Zm-11.23,24c-1.02-1.6-2.27-3.41-3.74-5.42-1.47-2.02-2.72-3.62-3.74-4.8l2.88-2.26c1.06,1.22,2.31,2.78,3.77,4.7s2.73,3.66,3.82,5.23l-2.98,2.54Z"/>
      <path class="h" d="M354.55,351.21v3.65h-25.63c-1.79,3.94-3.89,7.57-6.29,10.9v23.38h-3.84v-18.62c-1.63,1.79-3.49,3.62-5.57,5.47l-2.35-3.41c5.6-4.7,10.16-10.61,13.68-17.71h-12.34v-3.65h14.02c.83-1.95,1.62-4.1,2.35-6.43l3.84,.91c-.74,2.24-1.39,4.08-1.97,5.52h24.1Zm-1.82,19.25h-11.33v13.25h13.1v3.7h-29.76v-3.7h12.77v-13.25h-10.75v-3.7h10.75v-8.54h3.89v8.54h11.33v3.7Z"/>
      <path class="h" d="M376.49,382.51c-4.64,1.28-10.03,2.61-16.18,3.98l-.62-3.6c6.14-1.34,11.66-2.67,16.56-3.98l.24,3.6Zm-15.65-18.58l-.82-3.74c.51-.19,.89-.37,1.13-.53,.24-.16,.47-.38,.7-.67,1.22-1.63,2.51-3.7,3.89-6.19s2.61-5.01,3.7-7.54l3.36,1.58c-1.03,2.21-2.2,4.52-3.53,6.94-1.33,2.42-2.6,4.55-3.82,6.41l5.95-1.01c1.18-2.08,2.32-4.16,3.41-6.24l3.22,1.78c-3.74,7.04-7.15,12.75-10.22,17.14l8.35-1.78,.05,3.55-10.8,2.21-3.41,.72-.86-3.7c.83-.26,1.45-.5,1.85-.74,.4-.24,.79-.63,1.18-1.18,1.47-2.08,3.23-4.85,5.28-8.3l-5.9,.86-2.69,.43Zm41.76,13.78c-.32,1.76-.78,3.63-1.39,5.62-.61,2.02-1.36,3.47-2.26,4.37-.9,.9-1.97,1.34-3.22,1.34s-2.34-.37-3.38-1.1c-1.04-.74-2.17-2.06-3.38-3.98-.42-.64-.8-1.39-1.15-2.26-3.39,2.27-6.98,4.16-10.75,5.66l-1.58-3.5c3.87-1.5,7.55-3.39,11.04-5.66-.8-2.69-1.47-5.95-2.02-9.79l-7.49,.91-.34-3.6,7.39-.91c-.13-1.18-.29-2.98-.48-5.38l-5.28,.58-.29-3.41,5.33-.62v-.05c-.13-1.92-.29-5.36-.48-10.32l3.7-.1c.19,3.43,.34,6.77,.43,10.03l14.02-1.58,.43,3.46-14.26,1.58c.1,1.89,.24,3.68,.43,5.38l14.54-1.78,.34,3.55-14.45,1.78c.45,3.23,.99,5.92,1.63,8.06,3.3-2.46,6.21-5.18,8.74-8.16l2.35,2.5c-3.01,3.42-6.3,6.48-9.89,9.17,.45,.96,.88,1.82,1.3,2.59,1.12,1.79,2.29,2.69,3.5,2.69,.61,0,1.08-.23,1.42-.7,.34-.46,.66-1.38,.98-2.76l.29-1.2c.48-2.11,.77-3.44,.86-3.98l3.36,1.58Zm-7.1-24.1c-1.76-2.02-3.74-4.05-5.95-6.1l2.35-2.16c2.24,1.95,4.29,3.98,6.14,6.1l-2.54,2.16Z"/>
      <path class="h" d="M415.95,352.6c-1.28,1.92-2.83,3.89-4.66,5.9l-3.17-2.16c1.7-1.82,3.24-3.74,4.63-5.76,1.39-2.02,2.5-3.95,3.34-5.81l3.74,.96c-.51,1.09-1.12,2.27-1.82,3.55h11.76v3.31h-7.63l2.16,2.74-2.88,1.78-3.22-4.51h-2.26Zm15.74,16.66v4.22h17.66c-.32,3.3-.67,5.92-1.06,7.87-.35,1.66-.91,2.87-1.66,3.62s-1.88,1.13-3.38,1.13c-2.14,0-4.42-.13-6.82-.38l-.62-3.36c2.82,.32,4.93,.48,6.34,.48,.74,0,1.28-.18,1.63-.53,.35-.35,.64-.96,.86-1.82,.32-1.21,.53-2.5,.62-3.84h-13.58v12.77h-3.84v-11.9c-2.21,2.21-4.64,4.13-7.3,5.76-2.66,1.63-6.02,3.34-10.08,5.14l-1.97-3.6c3.49-1.28,6.43-2.56,8.83-3.84,2.4-1.28,4.56-2.72,6.48-4.32h-12.53l1.68-10.66h14.88v-4.37h-14.78v-3.36h33.5v10.99h-14.88Zm-3.84,0h-11.57l-.67,4.22h12.24v-4.22Zm23.23-19.97v3.31h-9.46c.9,1.06,1.6,1.92,2.11,2.59l-2.78,1.78c-1.82-2.3-3.01-3.76-3.55-4.37h-2.45c-1.09,1.89-2.11,3.44-3.07,4.66l-3.31-1.68c2.11-2.53,4.13-6.13,6.05-10.8l3.7,.96c-.54,1.28-1.07,2.46-1.58,3.55h14.35Zm-8.16,12.34h-11.23v4.37h11.23v-4.37Z"/>
      <path class="h" d="M456.36,382.6h42.82v3.84h-42.82v-3.84Zm2.74-33.12h37.3v3.98h-37.3v-3.98Zm2.26,15.31h32.88v3.89h-32.88v-3.89Z"/>
      <path class="h" d="M521.16,355.87l-.34,6.29-.1,1.1h20.64c-.03,2.62-.18,5.7-.46,9.24s-.57,6.18-.89,7.94c-.38,2.08-.87,3.64-1.46,4.68-.59,1.04-1.46,1.78-2.62,2.21-1.15,.43-2.83,.65-5.04,.65-1.92,0-4.19-.11-6.82-.34l-.77-3.74c2.66,.32,5.04,.48,7.15,.48,1.31,0,2.32-.14,3.02-.43s1.25-.8,1.63-1.54c.38-.74,.72-1.86,1.01-3.36,.64-3.26,.99-7.23,1.06-11.9h-16.85c-.45,3.2-1.14,6.04-2.09,8.52-.94,2.48-2.25,4.83-3.91,7.06-1.66,2.22-3.86,4.54-6.58,6.94l-2.98-3.31c2.94-2.5,5.23-4.86,6.86-7.08,1.63-2.22,2.84-4.7,3.62-7.42,.78-2.72,1.32-6.13,1.61-10.22,.1-1.34,.18-3.26,.24-5.76h-12.62v-3.79h20.45c-1.31-3.2-2.18-5.2-2.59-6l3.84-1.29,2.69,6.05,.53,1.25h17.76v3.79h-26.02Z"/>
      <path class="h" d="M566.91,350.59h21.55v3.79h-17.28v11.86h15.46v3.79h-15.46v15.7h-4.27v-35.14Z"/>
      <path class="h" d="M593.11,372.96v-3.46h17.47v3.46h-17.47Z"/>
      <path class="h" d="M618.02,358.56c1.38-2.75,3.27-4.86,5.69-6.34,2.42-1.47,5.13-2.21,8.14-2.21s5.72,.74,8.14,2.23c2.42,1.49,4.31,3.6,5.69,6.34,1.38,2.74,2.06,5.91,2.06,9.53s-.7,6.84-2.09,9.58c-1.39,2.74-3.29,4.85-5.69,6.34-2.4,1.49-5.1,2.23-8.11,2.23s-5.72-.74-8.14-2.21c-2.42-1.47-4.31-3.58-5.69-6.34s-2.06-5.95-2.06-9.6,.69-6.8,2.06-9.55Zm3.82,16.94c.91,2.14,2.23,3.82,3.96,5.02,1.73,1.2,3.74,1.8,6.05,1.8s4.31-.6,6.02-1.8,3.03-2.87,3.96-5.02c.93-2.14,1.39-4.61,1.39-7.39s-.46-5.3-1.39-7.44c-.93-2.14-2.25-3.81-3.96-4.99-1.71-1.18-3.72-1.78-6.02-1.78s-4.31,.59-6.02,1.78c-1.71,1.18-3.03,2.85-3.96,4.99s-1.39,4.62-1.39,7.44,.46,5.25,1.37,7.39Z"/>
      <path class="h" d="M658.63,365.56h18.86v-14.98h4.27v35.14h-4.27v-16.32h-18.86v16.32h-4.27v-35.14h4.27v14.98Z"/>
      <path class="h" d="M744.74,370.94l-.72,3.65c-8.48-1.18-15.54-2.94-21.17-5.28-6.14,2.62-13.31,4.58-21.5,5.86l-.96-3.7c6.75-.9,12.82-2.29,18.19-4.18-2.27-1.22-4.56-2.69-6.86-4.42-2.11,1.66-4.18,3.06-6.19,4.18l-1.92-2.93c2.05-1.02,4.3-2.53,6.74-4.51,2.45-1.98,4.36-3.87,5.74-5.66l3.22,1.1c-.42,.58-1.1,1.44-2.06,2.59h19.63v3.12c-2.88,2.43-6.19,4.64-9.94,6.62,4.74,1.57,10.67,2.75,17.81,3.55Zm-37.3-17.86v5.47h-3.84v-8.98h17.71c-.83-1.63-1.54-2.91-2.11-3.84l3.98-1.25c.86,1.7,1.63,3.39,2.3,5.09h16.85v9.02h-3.84v-5.52h-31.06Zm4.42,35.71h-3.74v-14.21h29.71v14.21h-3.74v-1.87h-22.22v1.87Zm22.22-5.04v-5.81h-22.22v5.81h22.22Zm-19.68-22.9c2.46,1.89,5.18,3.5,8.16,4.85,3.23-1.44,6.03-3.06,8.4-4.85h-16.56Z"/>
      <path class="h" d="M789.24,351.6v17.9h-30.77c-.13,3.17-.4,5.85-.82,8.04-.42,2.19-1.03,4.22-1.85,6.07-.82,1.86-1.96,3.87-3.43,6.05l-3.79-2.16c1.7-2.3,2.97-4.41,3.82-6.31,.85-1.9,1.44-4.11,1.78-6.62,.34-2.51,.5-5.86,.5-10.06v-12.91h15.79c-1.44-2.82-2.43-4.66-2.98-5.52l4.13-1.29c.61,.99,1.78,3.26,3.5,6.82h14.11Zm-30.67,14.16h26.78v-10.56h-26.78v10.56Z"/>
      <path class="h" d="M811.99,378.48l.34,3.6-8.4,2.02-6.62,1.63-.72-3.46,7.82-1.92c.61-2.78,1.23-6.28,1.87-10.49,.64-4.21,1.12-7.74,1.44-10.58l3.31,.58c-1.02,7.36-2.1,13.92-3.22,19.68l4.18-1.06Zm-.14-25.01v3.5h-14.64v-3.5h6l-.48-2.11c-.13-.54-.31-1.33-.55-2.38-.24-1.04-.42-1.77-.55-2.18l3.31-.72c.22,.77,.72,2.77,1.49,6,.06,.22,.18,.69,.34,1.39h5.09Zm-11.18,23.9l-.53-3.84c-.06-.48-.32-2.29-.77-5.42-.45-3.14-.88-5.71-1.3-7.73l3.02-.62c.42,1.92,.86,4.4,1.32,7.44,.46,3.04,.74,4.9,.84,5.57l.58,3.94-3.17,.67Zm39.74-12.1h-12.72c-.64,1.82-1.17,3.3-1.58,4.42h12.91v14.98c0,1.7-.31,2.85-.94,3.46-.62,.61-1.69,.91-3.19,.91-.86,0-1.78-.06-2.74-.19l-.62-3.02c1.02,.13,1.97,.19,2.83,.19,.48,0,.8-.14,.96-.41s.24-.82,.24-1.66v-11.04h-4.27v12.86h-3.17v-12.86h-3.98v13.63h-3.22v-13.63h-4.08v15.94h-3.22v-19.15h8.69c.42-1.09,.93-2.56,1.54-4.42h-11.23v-3.22h27.79v3.22Zm-5.62-17.42h3.46v10.27h-24.14v-10.27h3.5v7.15h6.82v-9.74h3.6v9.74h6.77v-7.15Z"/>
    </g>
  </g>
</svg>