<?xml version="1.0" encoding="UTF-8"?>
<svg id="a" data-name="图层 1" xmlns="http://www.w3.org/2000/svg" xmlns:xlink="http://www.w3.org/1999/xlink" viewBox="0 0 960 560">
  <defs>
    <style>
      .e {
        fill: #fff;
      }

      .f {
        fill: url(#b);
      }
    </style>
    <linearGradient id="b" data-name="未命名的渐变 29" x1=".5" y1="280" x2="959.5" y2="280" gradientUnits="userSpaceOnUse">
      <stop offset="0" stop-color="#00a6f9"/>
      <stop offset="1" stop-color="#81bd0a"/>
    </linearGradient>
  </defs>
  <g>
    <rect class="f" x=".5" y=".5" width="959" height="559"/>
    <path d="M959,1V559H1V1H959m1-1H0V560H960V0h0Z"/>
  </g>
  <g>
    <g id="c" data-name="顶部">
      <path class="e" d="M198.05,130.04c49.9,0,90.5,40.6,90.5,90.5s-40.6,90.5-90.5,90.5-90.5-40.6-90.5-90.5,40.6-90.5,90.5-90.5m0-18c-59.92,0-108.5,48.58-108.5,108.5s48.58,108.5,108.5,108.5,108.5-48.58,108.5-108.5-48.58-108.5-108.5-108.5h0Z"/>
      <g id="d" data-name="标题">
        <g>
          <path class="e" d="M347.76,196.09h34.34v9.14h-23.9v13.46h21.38v9.07h-21.38v21.02h-10.44v-52.7Z"/>
          <path class="e" d="M388.59,231.23v-8.35h27v8.35h-27Z"/>
          <path class="e" d="M426.1,207.9c2.21-4.13,5.22-7.28,9.04-9.47,3.82-2.18,8.08-3.28,12.78-3.28s8.96,1.09,12.78,3.28c3.82,2.18,6.84,5.34,9.07,9.47,2.23,4.13,3.35,8.95,3.35,14.47s-1.12,10.42-3.35,14.54c-2.23,4.13-5.26,7.28-9.07,9.47-3.82,2.19-8.08,3.28-12.78,3.28s-8.96-1.09-12.78-3.28c-3.82-2.18-6.83-5.34-9.04-9.47-2.21-4.13-3.31-8.98-3.31-14.54s1.1-10.34,3.31-14.47Zm9.47,23.76c1.18,2.69,2.83,4.76,4.97,6.23,2.13,1.46,4.59,2.2,7.38,2.2s5.24-.73,7.38-2.2c2.13-1.46,3.79-3.54,4.97-6.23,1.18-2.69,1.76-5.78,1.76-9.29s-.59-6.59-1.76-9.25c-1.18-2.66-2.83-4.73-4.97-6.19-2.14-1.46-4.6-2.2-7.38-2.2s-5.25,.73-7.38,2.2c-2.14,1.46-3.79,3.53-4.97,6.19-1.18,2.66-1.76,5.75-1.76,9.25s.59,6.6,1.76,9.29Z"/>
          <path class="e" d="M492.12,216.83h23.76v-20.74h10.51v52.7h-10.51v-22.68h-23.76v22.68h-10.44v-52.7h10.44v20.74Z"/>
          <path class="e" d="M575.06,196.09c4.18,0,7.82,.72,10.94,2.16,3.12,1.44,5.53,3.47,7.24,6.08,1.7,2.62,2.55,5.68,2.55,9.18s-.85,6.49-2.55,9.11c-1.71,2.62-4.12,4.63-7.24,6.05-3.12,1.42-6.77,2.12-10.94,2.12h-7.71v18h-10.44v-52.7h18.14Zm-1.15,25.85c3.26,0,5.88-.71,7.85-2.12,1.97-1.42,2.95-3.52,2.95-6.3s-.98-4.91-2.95-6.37c-1.97-1.46-4.58-2.2-7.85-2.2h-6.55v16.99h6.55Z"/>
          <path class="e" d="M637.27,196.09l10.94,35.42,10.08-35.42h10.08l-16.42,52.7h-8.06l-11.09-34.42-10.73,34.42h-7.99l-17.13-52.7h10.8l10.8,35.42,10.37-35.42h8.35Z"/>
          <path class="e" d="M693.22,196.09l21.31,52.7h-11.09l-4.61-12.02h-20.52l-4.46,12.02h-10.44l20.66-52.7h9.14Zm2.23,31.75l-7.06-18.5-6.84,18.5h13.9Z"/>
        </g>
        <g>
          <path class="e" d="M726.67,225.88c1.13-2.87,2.68-5.3,4.64-7.29h4.86c-1.97,2.38-3.47,4.88-4.5,7.52-1.03,2.64-1.55,5.69-1.55,9.14s.52,6.54,1.55,9.18c1.03,2.64,2.53,5.14,4.5,7.49h-4.86c-1.97-1.99-3.52-4.42-4.64-7.27-1.13-2.86-1.69-5.99-1.69-9.4s.56-6.51,1.69-9.38Z"/>
          <path class="e" d="M764.54,247.93h-6.23l-2.73-2.88c-2.45,2.21-5.35,3.31-8.71,3.31-2.71,0-4.9-.68-6.57-2.03-1.67-1.36-2.5-3.25-2.5-5.67,0-1.99,.53-3.61,1.58-4.86,1.06-1.25,2.51-2.34,4.36-3.28-.94-1.08-1.59-2.05-1.96-2.9-.37-.85-.56-1.75-.56-2.68,0-1.44,.36-2.68,1.08-3.71,.72-1.03,1.69-1.82,2.9-2.36,1.21-.54,2.55-.81,4.01-.81s2.83,.28,3.96,.83c1.13,.55,1.99,1.31,2.59,2.29,.6,.97,.9,2.07,.9,3.29,0,1.63-.51,2.97-1.53,4.01s-2.46,2.03-4.34,2.97l4.5,4.79c.82-1.75,1.37-3.73,1.66-5.94h5c-.55,3.58-1.68,6.7-3.38,9.36l5.98,6.26Zm-12.02-6.08l-5.98-6.34c-1.13,.65-2,1.34-2.63,2.09-.62,.74-.94,1.62-.94,2.63,0,1.18,.4,2.09,1.21,2.74,.8,.65,1.87,.97,3.19,.97,1.85,0,3.56-.7,5.15-2.09Zm-5.87-13.3c.26,.54,.73,1.21,1.4,2,1.15-.55,2.03-1.12,2.63-1.71,.6-.59,.9-1.29,.9-2.11,0-.7-.23-1.27-.7-1.71-.47-.44-1.09-.67-1.85-.67-.82,0-1.48,.23-2,.68-.52,.46-.77,1.1-.77,1.94,0,.5,.13,1.03,.39,1.57Z"/>
          <path class="e" d="M772.46,221.58h21.24v4.64h-7.99v21.71h-5.26v-21.71h-7.99v-4.64Z"/>
          <path class="e" d="M805.62,230.96c1.42,1.43,2.12,3.46,2.12,6.1v10.87h-4.21c-.03-.19-.05-.51-.09-.95-.04-.44-.09-.83-.16-1.17-.55,.86-1.27,1.51-2.14,1.93-.88,.42-1.94,.63-3.19,.63s-2.48-.23-3.55-.68-1.91-1.12-2.54-2c-.62-.88-.94-1.91-.94-3.11s.35-2.33,1.06-3.26c.71-.92,1.66-1.64,2.86-2.14,1.2-.5,2.52-.76,3.96-.76,1.3,0,2.63,.22,4,.65-.07-2.76-1.25-4.14-3.53-4.14-1.82,0-3.16,.82-4,2.45l-3.56-2.05c.67-1.39,1.7-2.49,3.1-3.29,1.39-.8,3.02-1.21,4.9-1.21,2.52,0,4.49,.71,5.9,2.14Zm-2.81,9.41c-1.2-.29-2.24-.43-3.13-.43-1.18,0-2.09,.21-2.74,.63-.65,.42-.97,1.01-.97,1.78,0,.7,.26,1.24,.77,1.62,.52,.38,1.18,.58,2,.58,1.08,0,2.03-.31,2.84-.92,.82-.61,1.22-1.46,1.22-2.54v-.72Z"/>
          <path class="e" d="M824.19,229.28h5v18.65h-4.43c-.1-1.44-.19-2.41-.29-2.92-.62,1.13-1.44,1.97-2.45,2.52s-2.16,.83-3.46,.83c-2.09,0-3.73-.67-4.93-2.02-1.2-1.34-1.8-3.31-1.8-5.9v-11.16h5v9.5c0,3.43,1.1,5.15,3.31,5.15,1.2,0,2.17-.47,2.92-1.4s1.12-2.24,1.12-3.92v-9.32Z"/>
          <path class="e" d="M845.79,229.14c.62,.22,1.1,.49,1.44,.83l-1.95,3.85c-.62-.43-1.33-.65-2.12-.65-1.3,0-2.33,.54-3.12,1.62-.78,1.08-1.17,2.57-1.17,4.46v8.68h-5v-18.65h4.39c.12,1.44,.23,2.42,.32,2.95,.55-1.13,1.27-1.98,2.16-2.56,.89-.58,1.89-.86,3.02-.86,.72,0,1.39,.11,2.02,.32Z"/>
          <path class="e" d="M849.73,225.99c-.59-.61-.88-1.33-.88-2.14s.29-1.56,.86-2.16c.58-.6,1.27-.9,2.09-.9s1.52,.31,2.12,.92c.6,.61,.9,1.33,.9,2.14s-.3,1.53-.9,2.14c-.6,.61-1.31,.92-2.12,.92s-1.48-.31-2.07-.92Zm4.63,21.94h-5v-18.65h5v18.65Z"/>
          <path class="e" d="M866.67,244.66c-1.13,2.86-2.68,5.28-4.64,7.27h-4.86c1.97-2.35,3.47-4.85,4.5-7.49,1.03-2.64,1.55-5.7,1.55-9.18s-.52-6.5-1.55-9.14-2.53-5.15-4.5-7.52h4.86c1.97,1.99,3.52,4.42,4.64,7.29,1.13,2.87,1.69,5.99,1.69,9.38s-.56,6.54-1.69,9.4Z"/>
        </g>
      </g>
    </g>
    <g>
      <path class="e" d="M134.86,412.35h-3.31v6.29h4.32v4.18h-4.32v7.3c2.02-.32,3.68-.61,4.99-.86l.29,4.13c-2.4,.38-5.06,.82-7.99,1.3-2.93,.48-5.43,.88-7.51,1.2l-2.02,.34-.38-4.08c.26-.03,.54-.07,.84-.12,.3-.05,.65-.1,1.03-.17v-16.75h3.79v16.18l3.07-.53v-18.38h-6v-15.26h13.68v14.93c1.89-1.25,3.5-2.55,4.82-3.91,1.33-1.36,2.47-2.89,3.43-4.58h-6.72v-4.08h8.59c.54-1.57,1.02-3.26,1.44-5.09l4.13,.62c-.26,1.25-.66,2.74-1.2,4.46h12.58v4.08h-7.54c1.06,1.95,2.3,3.64,3.72,5.06,1.42,1.42,3.11,2.63,5.06,3.62l-1.82,3.74c-2.37-1.31-4.48-2.98-6.34-4.99v2.35h-13.01v-1.82c-1.54,1.54-3.36,3.04-5.47,4.51l-2.16-3.65Zm-3.36-10.99h-5.9v6.72h5.9v-6.72Zm5.66,19.34v-3.84h24.72v3.84h-16.7l-.77,3.55h15.31c-.32,3.07-.8,5.87-1.44,8.4-.35,1.47-.75,2.61-1.2,3.41-.45,.8-1.08,1.4-1.9,1.8-.82,.4-1.96,.6-3.43,.6-1.95,0-4.16-.16-6.62-.48l-.86-3.94c2.62,.38,4.93,.58,6.91,.58,.83,0,1.44-.22,1.82-.67,.38-.45,.77-1.17,1.15-2.16,.38-.96,.69-2.21,.91-3.74h-15.6l1.44-7.34h-3.74Zm10.99-17.18c-.96,2.08-2.22,4.05-3.79,5.9h9.84c-1.44-1.82-2.62-3.79-3.55-5.9h-2.5Z"/>
      <path class="e" d="M191.5,418.88h19.15v4.37h-19.15v15.26h-4.66v-15.26h-19.2v-4.37h19.2v-17.81h-17.23v-4.32h39.12v4.32h-17.23v17.81Zm-16.51-15.36c1.09,1.34,2.44,3.1,4.06,5.28,1.62,2.18,2.94,4.02,3.96,5.52l-3.65,2.5c-.99-1.57-2.28-3.45-3.86-5.64-1.58-2.19-2.9-3.93-3.96-5.21l3.46-2.45Zm20.35,10.75c1.15-1.28,2.53-3.03,4.13-5.26,1.6-2.22,2.85-4.07,3.74-5.54l3.65,2.45c-.9,1.44-2.17,3.29-3.82,5.54s-3.03,4.02-4.15,5.3l-3.55-2.5Z"/>
      <path class="e" d="M245.74,399.1c1.7,1.7,3.84,4.01,6.43,6.94,2.59,2.93,4.67,5.38,6.24,7.37l-3.36,2.88-3.31-4.08-15.12,1.1c-2.53,.16-5.05,.34-7.56,.53-2.51,.19-5.03,.38-7.56,.58-1.7,.13-2.93,.24-3.7,.34l-1.2-4.61c1.18-.19,2.04-.38,2.57-.55,.53-.18,1.02-.44,1.46-.79,1.73-1.31,3.91-3.53,6.55-6.65,2.64-3.12,4.79-5.93,6.46-8.42l4.03,2.35c-1.7,2.43-3.63,4.97-5.81,7.61-2.18,2.64-4.08,4.71-5.71,6.22l22.18-1.68c-2.4-2.78-4.34-4.93-5.81-6.43l3.22-2.69Zm-20.4,39.55h-4.51v-20.5h32.59v20.5h-4.51v-2.45h-23.57v2.45Zm23.57-6.72v-9.36h-23.57v9.36h23.57Z"/>
      <path class="e" d="M277.13,395.17c-.38,1.76-.96,4.06-1.73,6.91h6.67v34.7h-16.8v-34.7h5.18c.67-2.02,1.33-4.59,1.97-7.73l4.7,.82Zm-7.49,20.4h8.06v-9.12h-8.06v9.12Zm0,4.32v12.48h8.06v-12.48h-8.06Zm36.05-18.24c.03,4.1-.06,9.06-.29,14.88-.22,5.82-.5,10.82-.82,14.98-.13,1.76-.46,3.09-1.01,3.98s-1.34,1.5-2.4,1.82c-1.06,.32-2.51,.48-4.37,.48-.86,0-2.03-.06-3.5-.19-.35,0-.91-.03-1.68-.1l-.82-4.61c2.24,.29,4.05,.43,5.42,.43,.99,0,1.74-.09,2.26-.26,.51-.17,.91-.56,1.2-1.15,.29-.59,.5-1.5,.62-2.71,.48-6.05,.72-12.7,.72-19.97v-3.22h-10.99c-.93,2.27-1.97,4.54-3.12,6.82l-3.89-2.45c1.31-2.37,2.52-5.04,3.62-8.02,1.1-2.98,1.98-5.76,2.62-8.35l4.42,.91c-.54,2.21-1.22,4.45-2.02,6.72h14.02Zm-11.81,24.43c-1.06-1.7-2.29-3.51-3.7-5.45-1.41-1.94-2.62-3.48-3.65-4.63l3.36-2.64c2.14,2.53,4.62,5.79,7.44,9.79l-3.46,2.93Z"/>
      <path class="e" d="M354.22,400.16v4.27h-25.63c-1.73,3.84-3.79,7.41-6.19,10.7v23.23h-4.42v-17.86c-1.63,1.76-3.41,3.49-5.33,5.18l-2.45-4.18c5.38-4.54,9.81-10.24,13.3-17.09h-11.81v-4.27h13.82c.93-2.27,1.66-4.32,2.21-6.14l4.42,1.05c-.64,1.95-1.23,3.65-1.78,5.09h23.86Zm-1.87,19.87h-10.99v12.43h12.77v4.32h-29.57v-4.32h12.34v-12.43h-10.46v-4.27h10.46v-8.11h4.46v8.11h10.99v4.27Z"/>
      <path class="e" d="M375.87,432.17c-5.02,1.34-10.4,2.66-16.13,3.94l-.72-4.18c5.98-1.31,11.49-2.64,16.51-3.98l.34,4.22Zm-15.6-18.72l-.96-4.32c.51-.19,.9-.38,1.15-.55s.48-.39,.67-.65c1.22-1.7,2.47-3.74,3.77-6.12s2.49-4.84,3.58-7.37l3.94,1.82c-2.3,4.9-4.69,9.2-7.15,12.91l5.38-.96,3.12-5.81,3.74,2.02c-3.39,6.37-6.66,11.79-9.79,16.27l7.78-1.63,.05,4.13-10.9,2.26c-.42,.06-1.49,.29-3.22,.67l-1.01-4.32c.83-.26,1.46-.5,1.87-.74,.42-.24,.82-.63,1.2-1.18,1.44-2.02,3.06-4.58,4.85-7.68-2.18,.35-3.95,.62-5.33,.82l-2.74,.43Zm42,13.54c-.32,1.73-.8,3.63-1.44,5.71-.61,2.08-1.38,3.58-2.33,4.51-.94,.93-2.06,1.39-3.34,1.39s-2.46-.38-3.53-1.15c-1.07-.77-2.25-2.14-3.53-4.13-.32-.45-.67-1.1-1.06-1.97-3.14,2.11-6.5,3.87-10.08,5.28l-1.82-4.08c3.71-1.44,7.18-3.18,10.42-5.23-.77-2.59-1.39-5.71-1.87-9.36l-7.15,.86-.38-4.18,7.01-.86-.43-4.85-5.09,.58-.29-3.94,5.09-.58c-.16-2.72-.29-5.33-.38-7.82l-.1-2.3,4.27-.1,.48,9.74,13.78-1.58,.48,3.98-14.06,1.58,.43,4.8,14.3-1.78,.38,4.13-14.21,1.78c.45,2.94,.94,5.38,1.49,7.3,2.98-2.24,5.76-4.86,8.35-7.87l2.74,2.88c-3.04,3.46-6.27,6.48-9.7,9.07,.32,.86,.7,1.63,1.15,2.3,1.06,1.66,2.13,2.5,3.22,2.5,.54,0,.97-.22,1.27-.65,.3-.43,.6-1.3,.89-2.62,.54-2.21,.93-3.94,1.15-5.18l3.89,1.82Zm-7.25-23.9c-1.63-1.89-3.6-3.92-5.9-6.1l2.69-2.5c.96,.83,2.02,1.81,3.19,2.93s2.17,2.16,3,3.12l-2.98,2.54Z"/>
      <path class="e" d="M415.71,401.98c-1.38,2.08-2.96,4.11-4.75,6.1l-3.7-2.5c1.66-1.79,3.2-3.7,4.61-5.74s2.53-3.99,3.36-5.88l4.42,.96c-.67,1.44-1.22,2.54-1.63,3.31h11.14v3.75h-6.96c.9,1.18,1.52,2.08,1.87,2.69l-3.55,1.68-2.69-4.37h-2.11Zm15.74,16.8v3.79h17.76c-.29,3.07-.66,5.76-1.1,8.06-.35,1.76-.92,3.02-1.7,3.79-.78,.77-1.99,1.15-3.62,1.15-1.92,0-4.19-.11-6.82-.34l-.72-3.94c2.82,.32,4.91,.48,6.29,.48,.67,0,1.18-.16,1.51-.48,.34-.32,.62-.88,.84-1.68,.25-1.09,.45-2.22,.58-3.41h-13.01v12.53h-4.46v-11.14c-2.18,2.08-4.6,3.92-7.27,5.52-2.67,1.6-5.93,3.22-9.77,4.85l-2.3-4.13c3.42-1.25,6.33-2.46,8.71-3.65,2.38-1.18,4.5-2.51,6.36-3.98h-12.34l1.78-11.14h14.83v-3.98h-14.45v-3.79h33.98v11.47h-15.07Zm-4.46,0h-10.99l-.58,3.79h11.57v-3.79Zm23.66-20.54v3.75h-8.83c.67,.9,1.26,1.73,1.78,2.5l-3.41,1.73-2.98-4.22h-2.5c-1.02,1.79-2.05,3.38-3.07,4.75l-3.84-1.97c2.08-2.5,4.1-6.1,6.05-10.8l4.27,1.01c-.48,1.15-.96,2.24-1.44,3.26h13.97Zm-8.4,12.86h-10.8v3.98h10.8v-3.98Z"/>
      <path class="e" d="M455.83,431.36h42.72v4.66h-42.72v-4.66Zm2.74-32.93h37.2v4.7h-37.2v-4.7Zm2.21,15.26h32.83v4.61h-32.83v-4.61Z"/>
      <path class="e" d="M520.83,405.44l-.34,6-.05,1.01h20.69c-.03,2.5-.19,5.58-.48,9.24-.29,3.67-.59,6.38-.91,8.14-.35,1.98-.81,3.51-1.37,4.58-.56,1.07-1.38,1.85-2.45,2.33-1.07,.48-2.57,.74-4.49,.77-2.11,.03-4.72-.06-7.82-.29l-.91-4.37c2.37,.29,4.74,.43,7.11,.43,1.28,0,2.25-.14,2.9-.41,.66-.27,1.17-.75,1.54-1.44,.37-.69,.7-1.75,.98-3.19,.61-3.1,.96-6.88,1.05-11.33h-16.32c-.45,3.14-1.14,5.93-2.09,8.38s-2.26,4.78-3.96,6.98c-1.7,2.21-3.9,4.5-6.62,6.86l-3.46-3.84c2.98-2.43,5.27-4.75,6.89-6.96,1.62-2.21,2.81-4.66,3.6-7.34,.78-2.69,1.3-6.06,1.56-10.13,.1-1.22,.17-3.02,.24-5.42h-12.14v-4.42h19.78c-.96-2.56-1.73-4.48-2.3-5.76l4.85-1.2c.48,.99,1.39,3.31,2.74,6.96h17.52v4.42h-25.73Z"/>
      <path class="e" d="M566.19,399.82h21.98v4.56h-16.85v10.9h15.07v4.56h-15.07v15.12h-5.14v-35.14Z"/>
      <path class="e" d="M592.73,422.53v-4.13h17.62v4.13h-17.62Z"/>
      <path class="e" d="M617.64,407.76c1.41-2.74,3.34-4.84,5.81-6.31,2.46-1.47,5.21-2.21,8.26-2.21s5.79,.74,8.26,2.21c2.46,1.47,4.4,3.58,5.81,6.31,1.41,2.74,2.11,5.93,2.11,9.58s-.71,6.89-2.14,9.62c-1.42,2.74-3.36,4.84-5.81,6.31-2.45,1.47-5.19,2.21-8.23,2.21s-5.79-.73-8.26-2.18c-2.46-1.46-4.4-3.56-5.81-6.31s-2.11-5.97-2.11-9.65,.7-6.84,2.11-9.58Zm4.68,16.61c.88,2.03,2.12,3.61,3.72,4.73,1.6,1.12,3.49,1.68,5.66,1.68s4.07-.56,5.69-1.68c1.62-1.12,2.86-2.7,3.74-4.73s1.32-4.38,1.32-7.03-.44-4.99-1.32-7.01-2.14-3.58-3.77-4.7c-1.63-1.12-3.52-1.68-5.66-1.68s-4.03,.56-5.64,1.68c-1.62,1.12-2.86,2.69-3.74,4.7-.88,2.02-1.32,4.35-1.32,7.01s.44,5,1.32,7.03Z"/>
      <path class="e" d="M659.4,414.41h17.9v-14.59h5.13v35.14h-5.13v-15.94h-17.9v15.94h-5.14v-35.14h5.14v14.59Z"/>
      <path class="e" d="M745.32,419.98l-.86,4.22c-8.45-1.18-15.47-2.94-21.07-5.28-6.14,2.66-13.26,4.59-21.36,5.81l-1.15-4.27c6.37-.77,12.22-2.05,17.57-3.84-2.11-1.15-4.18-2.46-6.19-3.94-1.86,1.47-3.86,2.8-6,3.98l-2.3-3.46c2.11-.99,4.4-2.47,6.86-4.44,2.46-1.97,4.35-3.85,5.66-5.64l3.79,1.44c-.35,.51-.95,1.25-1.78,2.21h19.15v3.6c-2.85,2.34-6.02,4.43-9.5,6.29,4.51,1.44,10.24,2.54,17.18,3.31Zm-37.01-17.23v5.23h-4.46v-9.26h17.57c-.45-1.02-1.09-2.27-1.92-3.74l4.94-1.2c.83,1.82,1.52,3.47,2.06,4.94h16.65v9.31h-4.46v-5.28h-30.38Zm4.42,35.62h-4.37v-14.54h30.29v14.54h-4.37v-1.82h-21.55v1.82Zm21.55-5.47v-5.23h-21.55v5.23h21.55Zm-18.62-22.42c2.24,1.7,4.74,3.15,7.49,4.37,2.88-1.22,5.49-2.67,7.82-4.37h-15.31Z"/>
      <path class="e" d="M790.05,400.68v18.77h-30.86c-.19,4.45-.71,8.05-1.56,10.8-.85,2.75-2.31,5.68-4.39,8.78l-4.32-2.54c1.66-2.24,2.9-4.3,3.72-6.19,.82-1.89,1.38-4.06,1.71-6.53,.32-2.46,.48-5.78,.48-9.94v-13.15h15.6c-1.22-2.66-2.11-4.46-2.69-5.42l4.99-1.25c1.28,2.66,2.3,4.88,3.07,6.67h14.26Zm-30.72,14.4h26.21v-10.18h-26.21v10.18Z"/>
      <path class="e" d="M812.33,427.47l.43,4.13-8.3,2.02-6.62,1.63-.82-4.03c3.26-.77,5.86-1.39,7.78-1.87,.58-2.78,1.18-6.24,1.8-10.37,.62-4.13,1.1-7.6,1.42-10.42l3.74,.62c-.96,6.94-2,13.34-3.12,19.2l3.7-.91Zm.05-25.01v4.08h-14.64v-4.08h5.62c-.77-3.52-1.27-5.66-1.49-6.43l3.89-.77c.26,.93,.81,3.33,1.68,7.2h4.94Zm-11.38,24.14c-.1-.51-.17-1.01-.22-1.49-.05-.48-.1-.93-.17-1.34-.06-.51-.34-2.43-.84-5.76-.5-3.33-.97-6.08-1.42-8.26l3.41-.72c.61,2.88,1.39,7.52,2.35,13.92l.43,2.88-3.55,.77Zm40.08-11.9h-12.53c-.29,.93-.77,2.29-1.44,4.08h12.72v15.07c0,1.79-.33,3.01-.98,3.65-.66,.64-1.75,.96-3.29,.96-.99,0-2-.06-3.02-.19l-.67-3.26h-3.31v-12.53h-3.6v13.3h-3.6v-13.3h-3.65v15.79h-3.74v-19.49h8.78c.45-1.18,.91-2.54,1.39-4.08h-10.94v-3.7h27.89v3.7Zm-5.95-17.71h3.94v10.42h-24.62v-10.42h3.98v6.77h6.34v-9.36h4.03v9.36h6.34v-6.77Zm.77,25.49h-3.79v12.29c1.02,.13,1.89,.19,2.59,.19,.48,0,.8-.14,.96-.41,.16-.27,.24-.81,.24-1.61v-10.46Z"/>
    </g>
  </g>
</svg>